<svg width="56" height="44" viewBox="0 0 56 44" fill="none" xmlns="http://www.w3.org/2000/svg">
<g clip-path="url(#clip0_1237:6520)">
<path d="M0 0.161377V27.584L17.4933 18.9724L0 0.161377Z" fill="url(#paint0_linear_1237:6520)"/>
<path d="M55.9999 27.584V0.161377L38.5065 18.9724L55.9999 27.584Z" fill="#E26CFF"/>
<path d="M28 30.2485L40.8 44.0002H56V27.5843L38.5067 18.9727L28 30.2485Z" fill="url(#paint1_linear_1237:6520)"/>
<path d="M28 13.8055L0 0V0.161468L17.4933 18.9725L28 13.8055Z" fill="#123FF9"/>
<path d="M17.4933 18.9727L0 27.5843V44.0002H15.2L28 30.2485L17.4933 18.9727Z" fill="url(#paint2_linear_1237:6520)"/>
<path d="M28 13.8055L38.5067 18.9725L56 0.161468V0L28 13.8055Z" fill="url(#paint3_linear_1237:6520)"/>
<path d="M28.0001 30.2485L38.5068 18.9726L28.0001 13.8057L17.4935 18.9726L28.0001 30.2485Z" fill="url(#paint4_linear_1237:6520)"/>
</g>
<defs>
<linearGradient id="paint0_linear_1237:6520" x1="8.74667" y1="0.161377" x2="8.74667" y2="27.584" gradientUnits="userSpaceOnUse">
<stop stop-color="#247CFF"/>
<stop offset="1" stop-color="#247CFF"/>
</linearGradient>
<linearGradient id="paint1_linear_1237:6520" x1="12.9333" y1="11.1684" x2="60.8108" y2="43.7267" gradientUnits="userSpaceOnUse">
<stop stop-color="#2EC3D7"/>
<stop offset="1" stop-color="#41FBC9"/>
</linearGradient>
<linearGradient id="paint2_linear_1237:6520" x1="-1.2" y1="49.2479" x2="48.0935" y2="9.05356" gradientUnits="userSpaceOnUse">
<stop stop-color="#00FFFE"/>
<stop offset="0.904558" stop-color="#3FC9F4"/>
</linearGradient>
<linearGradient id="paint3_linear_1237:6520" x1="26.8" y1="15.0703" x2="60.3621" y2="1.17672" gradientUnits="userSpaceOnUse">
<stop stop-color="#6966F8"/>
<stop offset="1" stop-color="#C853E2"/>
</linearGradient>
<linearGradient id="paint4_linear_1237:6520" x1="27.3334" y1="14.3978" x2="27.3334" y2="40.6363" gradientUnits="userSpaceOnUse">
<stop stop-color="#0CE0ED"/>
<stop offset="1" stop-color="#2099D8"/>
</linearGradient>
<clipPath id="clip0_1237:6520">
<rect width="56" height="44" fill="white"/>
</clipPath>
</defs>
</svg>
