<svg id="Layer_1" data-name="Layer 1" xmlns="http://www.w3.org/2000/svg" viewBox="0 0 160 48"><defs><style>.cls-1{fill:#ffda00;}.cls-2{fill:#eaaa00;}</style></defs><title>Logo-160</title><circle class="cls-1" cx="23.56" cy="24" r="23.56"/><path class="cls-2" d="M27.28,22.57c0-1.83,0-3.4-2-3.4a6,6,0,0,0-4.29,2l-.09.1v.14c0,.42.06.8.06,1.19v5.22H18V22.57c0-1.82,0-3.4-1.95-3.4-2.51,0-5.42,2.1-5.42,4.81V34.83c13.6,2.08,19.11-6.22,19.62-7h-3Z"/><path d="M39.54,22.6c0-3.88-1.56-5.84-4.65-5.84-1.33,0-3.76.23-5.07,1.76l-.27.31-.23-.34a4.12,4.12,0,0,0-3.67-1.73c-1.34,0-3.79.23-5.09,1.78l-.27.33-.24-.36a4.12,4.12,0,0,0-3.68-1.75c-1.39,0-3.9.24-5.17,1.88l-.57.73v-.92A2.73,2.73,0,0,0,7.9,15.72H7.58v25.7a22.36,22.36,0,0,0,3,2.35l.06-.1V24c0-2.71,2.91-4.81,5.42-4.81,1.95,0,1.95,1.58,1.95,3.4v5.25h3V22.6c0-.39,0-.77-.06-1.19v-.14l.09-.1a6,6,0,0,1,4.29-2c1.94,0,2,1.57,2,3.4v5.25h3V22.6c0-.4,0-.8-.06-1.23v-.14l.09-.1a6,6,0,0,1,4.25-2c1.94,0,1.94,1.57,1.94,3.4V43.66A26.37,26.37,0,0,0,39,41.8l.57-.51Z"/><path d="M66.37,27.66H64.79L62,21.05l-.58,6.74H59l1-11.08h2.47l3.1,7.46,3.1-7.46h2.47l1,11.08H69.73l-.59-6.74Z"/><path d="M80.26,19.67h2.36v8.12H80.26V26.6A2.94,2.94,0,0,1,77.72,28a3.61,3.61,0,0,1-2.88-1.22,4.43,4.43,0,0,1-1.08-3,4.38,4.38,0,0,1,1-3,3.58,3.58,0,0,1,2.87-1.2,3.16,3.16,0,0,1,1.48.35,3,3,0,0,1,1.11.93Zm-4.14,4a2.46,2.46,0,0,0,.56,1.67,1.87,1.87,0,0,0,1.53.67,2.07,2.07,0,0,0,1.51-.59,2.13,2.13,0,0,0,.61-1.63,2.46,2.46,0,0,0-.61-1.77,2.05,2.05,0,0,0-1.58-.65,1.83,1.83,0,0,0-1.48.66A2.49,2.49,0,0,0,76.12,23.71Z"/><path d="M85,27.79V19.67h2.36v1.11a2.93,2.93,0,0,1,2.51-1.28q2.9,0,2.9,3.87v4.42H90.37V23.42q0-2-1.5-2a1.33,1.33,0,0,0-1.16.55,2.44,2.44,0,0,0-.39,1.45v4.35Z"/><path d="M101.54,25.07l1.36,1.29A4.83,4.83,0,0,1,99.12,28a4.76,4.76,0,0,1-3.42-1.19,4,4,0,0,1-1.23-3,4.08,4.08,0,0,1,1.27-3A4.41,4.41,0,0,1,99,19.5a4.33,4.33,0,0,1,3.11,1.25,4.68,4.68,0,0,1,1.29,3.53H96.81a1.57,1.57,0,0,0,.7,1.26,2.91,2.91,0,0,0,1.78.49A3.15,3.15,0,0,0,101.54,25.07Zm-2.62-3.66a2.44,2.44,0,0,0-1.26.35,1.74,1.74,0,0,0-.8,1.09h4.06a1.44,1.44,0,0,0-.71-1.07A2.39,2.39,0,0,0,98.92,21.41Z"/><path d="M107.38,23l2.31-3.29h2.61V20l-2.69,3.38,1.06,1.7a1.36,1.36,0,0,0,1.11.73,1.54,1.54,0,0,0,.87-.29l.88,1.66a3.08,3.08,0,0,1-2.12.79,2.73,2.73,0,0,1-2.4-1.23l-1.63-2.63v3.69H105V16.35h2.36Z"/><path d="M114.55,17.52a1.23,1.23,0,0,1,.41-1,1.52,1.52,0,0,1,1.07-.37,1.57,1.57,0,0,1,1.07.37,1.22,1.22,0,0,1,.44,1,1.19,1.19,0,0,1-.44.94,1.57,1.57,0,0,1-1.07.37,1.55,1.55,0,0,1-1.06-.36A1.19,1.19,0,0,1,114.55,17.52Zm2.64,10.27h-2.36V19.67h2.36Z"/><path d="M118.93,25.89l1.71-1a1.44,1.44,0,0,0,.65.93,2,2,0,0,0,1.06.28,1.72,1.72,0,0,0,.74-.15.51.51,0,0,0,.32-.46c0-.26-.2-.46-.61-.62l-1.42-.6a4.13,4.13,0,0,1-1.11-.58,2,2,0,0,1-.63-.71,3.47,3.47,0,0,1-.23-.6,1.75,1.75,0,0,1,0-.44,2.13,2.13,0,0,1,.91-1.83,3.81,3.81,0,0,1,2.27-.65,3,3,0,0,1,2.92,1.71l-1.82.84a1.1,1.1,0,0,0-1.15-.78,1.09,1.09,0,0,0-.63.18.55.55,0,0,0-.27.48.48.48,0,0,0,.18.4,2,2,0,0,0,.58.3l1.21.48a3.68,3.68,0,0,1,1.13.5,2.07,2.07,0,0,1,.65.68,2.92,2.92,0,0,1,.25.63,2.33,2.33,0,0,1,.06.53,2.11,2.11,0,0,1-1,1.85,4,4,0,0,1-2.37.66,4.62,4.62,0,0,1-2.07-.46A2.58,2.58,0,0,1,118.93,25.89Z"/><path d="M130.49,24.56,132,19.89h1.64l1.47,4.67,1.41-4.89h2.59l-.63,1.85-2.26,6.27h-2l-1.39-4.61-1.39,4.61h-2l-2.27-6.27-.63-1.85h2.6Z"/><path d="M146.44,19.67h2.36v8.12h-2.36V26.6A3,3,0,0,1,143.89,28,3.63,3.63,0,0,1,141,26.74a4.47,4.47,0,0,1-1.07-3,4.38,4.38,0,0,1,1-3,3.58,3.58,0,0,1,2.87-1.2,3.16,3.16,0,0,1,1.48.35,3.06,3.06,0,0,1,1.11.93Zm-4.14,4a2.46,2.46,0,0,0,.56,1.67,1.86,1.86,0,0,0,1.52.67,2.08,2.08,0,0,0,1.52-.59,2.17,2.17,0,0,0,.6-1.63,2.5,2.5,0,0,0-.6-1.77,2.05,2.05,0,0,0-1.58-.65,1.83,1.83,0,0,0-1.48.66A2.49,2.49,0,0,0,142.3,23.71Z"/><path d="M153.5,31.49h-2.36V19.67h2.36v1.19A2.94,2.94,0,0,1,156,19.5a3.61,3.61,0,0,1,2.88,1.22A4.43,4.43,0,0,1,160,23.77a4.43,4.43,0,0,1-1,3,3.58,3.58,0,0,1-2.87,1.2,3.13,3.13,0,0,1-1.48-.35,3,3,0,0,1-1.11-.93Zm4.14-7.74a2.46,2.46,0,0,0-.56-1.67,1.87,1.87,0,0,0-1.53-.67A2.07,2.07,0,0,0,154,22a2.13,2.13,0,0,0-.61,1.63A2.46,2.46,0,0,0,154,25.4a2.05,2.05,0,0,0,1.58.65,1.83,1.83,0,0,0,1.48-.66A2.49,2.49,0,0,0,157.64,23.75Z"/></svg>