<svg id="Layer_1" data-name="Layer 1" xmlns="http://www.w3.org/2000/svg" viewBox="0 0 160 160"><defs><style>.cls-1{fill:#ffda00;}.cls-2{fill:#eaaa00;}</style></defs><title>Logo-0706</title><circle class="cls-1" cx="80" cy="80" r="70"/><path class="cls-2" d="M91,75.76c0-5.43,0-10.12-5.78-10.12a17.85,17.85,0,0,0-12.74,6l-.28.31,0,.41a33.34,33.34,0,0,1,.19,3.53V91.36h-9V75.76c0-5.43,0-10.12-5.78-10.12-7.45,0-16.11,6.25-16.11,14.31v32.23C82,118.37,98.35,93.7,99.88,91.35H91Z"/><path d="M127.49,75.83c0-11.51-4.65-17.34-13.83-17.34-4,0-11.17.68-15,5.21l-.8,1-.7-1c-2.29-3.4-6-5.13-10.9-5.13-4,0-11.25.69-15.11,5.29l-.81,1-.7-1c-2.3-3.46-6-5.21-11-5.21-4.11,0-11.58.73-15.36,5.58l-1.69,2.18V63.5a8.11,8.11,0,0,0-8.11-8.1h-1v76.34a65.49,65.49,0,0,0,8.9,7l.18-.3V80c0-8.06,8.66-14.31,16.11-14.31,5.78,0,5.78,4.69,5.78,10.12v15.6h9V75.84a33.34,33.34,0,0,0-.19-3.53l0-.41.28-.31a17.85,17.85,0,0,1,12.74-6C91,65.64,91,70.33,91,75.76v15.6h9V75.84a35.45,35.45,0,0,0-.19-3.65l0-.41.28-.31a17.91,17.91,0,0,1,12.63-5.83c5.78,0,5.78,4.69,5.78,10.12v62.65a79.24,79.24,0,0,0,7.31-5.53l1.69-1.51Z"/></svg>